# xmcd
#
# Track frame offsets: 
#        150
#        19590
#        49510
#        69510
#        87380
#        113110
#        139820
#        158360
#        175260
#        198010
#        213710
#        241480
#        264520
#        287180
#
# Disc length: 4114 seconds
#
# Revision: 0
# Processed by: cddbd v1.5.2PL0 Copyright (c) Steve Scherf et al.
# Submitted via: ExactAudioCopy v0.99pb5
#
DISCID=c110100e
DTITLE=Spyro Gyra - The Best Of - The First Ten Years
DYEAR=1998
DGENRE=Blues
TTITLE0=Shaker Song
TTITLE1=Morning Dance
TTITLE2=Catching The Sun
TTITLE3=Autumn Of Our Love
TTITLE4=Cafe Amore
TTITLE5=Cashaca
TTITLE6=Freetime
TTITLE7=Summer Strut
TTITLE8=Old San Juan
TTITLE9=Incognito
TTITLE10=Conversations
TTITLE11=Shakedown
TTITLE12=Bob Goes To The Store
TTITLE13=Del Corazon
EXTD=
EXTT0=
EXTT1=
EXTT2=
EXTT3=
EXTT4=
EXTT5=
EXTT6=
EXTT7=
EXTT8=
EXTT9=
EXTT10=
EXTT11=
EXTT12=
EXTT13=
PLAYORDER=
